<svg width="27" height="28" viewBox="0 0 27 28" fill="none" xmlns="http://www.w3.org/2000/svg">
<path d="M25.3765 1.59618C24.6441 0.836093 23.6514 0.40918 22.6164 0.40918C21.5814 0.40918 20.5887 0.836093 19.8563 1.59618L2.33476 19.8077C1.833 20.3263 1.43516 20.9431 1.16425 21.6225C0.893342 22.302 0.754748 23.0305 0.756486 23.766V26.0648C0.756486 26.3618 0.869989 26.6466 1.07203 26.8566C1.27406 27.0666 1.54808 27.1845 1.83381 27.1845H4.04555C4.75309 27.1866 5.454 27.0428 6.10771 26.7614C6.76141 26.48 7.35492 26.0666 7.85388 25.5452L25.3765 7.33262C26.1075 6.57141 26.518 5.53987 26.518 4.4644C26.518 3.38892 26.1075 2.35738 25.3765 1.59618ZM6.33054 23.9619C5.72294 24.5893 4.90198 24.9425 4.04555 24.945H2.91113V23.766C2.91004 23.3247 2.99317 22.8875 3.15572 22.4799C3.31827 22.0722 3.557 21.7021 3.85809 21.391L17.1555 7.57L19.6333 10.1454L6.33054 23.9619ZM23.8521 5.7493L21.1523 8.5565L18.6745 5.98669L21.3753 3.17949C21.538 3.01076 21.7311 2.87698 21.9435 2.7858C22.156 2.69462 22.3836 2.64783 22.6135 2.64809C22.8433 2.64835 23.0708 2.69566 23.2831 2.78732C23.4953 2.87898 23.6881 3.01319 23.8505 3.18229C24.0128 3.3514 24.1415 3.55208 24.2293 3.77288C24.317 3.99369 24.362 4.23029 24.3617 4.46918C24.3615 4.70807 24.316 4.94456 24.2278 5.16517C24.1396 5.38577 24.0105 5.58616 23.8478 5.7549L23.8521 5.7493Z" fill="white"/>
</svg>
