<svg width="27" height="28" viewBox="0 0 27 28" fill="none" xmlns="http://www.w3.org/2000/svg">
<path d="M24.8102 21.3143C25.5945 22.4721 26.6125 23.8102 26.6125 24.7609C26.6125 25.5033 26.3288 26.2154 25.8237 26.7403C25.3186 27.2653 24.6335 27.5602 23.9192 27.5602C23.2049 27.5602 22.5199 27.2653 22.0148 26.7403C21.5097 26.2154 21.2259 25.5033 21.2259 24.7609C21.2259 23.8931 22.2612 22.5125 23.0488 21.3244C23.1474 21.1771 23.2787 21.0566 23.4315 20.9731C23.5844 20.8896 23.7543 20.8455 23.927 20.8445C24.0996 20.8435 24.27 20.8857 24.4237 20.9674C24.5774 21.0492 24.71 21.1682 24.8102 21.3143ZM23.8654 16.2105L14.5228 25.9209C13.5118 26.9692 12.1421 27.558 10.714 27.558C9.2859 27.558 7.91613 26.9692 6.90511 25.9209L2.33511 21.1699C1.32495 20.1199 0.757446 18.6959 0.757446 17.211C0.757446 15.7262 1.32495 14.3021 2.33511 13.2522L8.48554 6.85846L5.40871 3.6224C5.2133 3.41012 5.10599 3.12653 5.10991 2.83277C5.11383 2.53901 5.22867 2.25862 5.42967 2.05206C5.63067 1.8455 5.90172 1.72932 6.18437 1.72857C6.46703 1.72781 6.73865 1.84255 6.94066 2.04804L10.0089 5.27738L11.6766 3.54178L10.7684 2.59784C10.5721 2.38665 10.4636 2.1038 10.466 1.81021C10.4685 1.51661 10.5818 1.23577 10.7815 1.02816C10.9812 0.820551 11.2515 0.702789 11.5339 0.700238C11.8164 0.697686 12.0885 0.81055 12.2917 1.01452L26.2969 15.5712C26.3998 15.6745 26.4819 15.798 26.5383 15.9346C26.5948 16.0712 26.6245 16.2182 26.6257 16.3669C26.627 16.5155 26.5997 16.663 26.5456 16.8006C26.4914 16.9382 26.4114 17.0632 26.3102 17.1684C26.2091 17.2735 26.0888 17.3566 25.9564 17.4129C25.824 17.4692 25.6821 17.4976 25.5391 17.4963C25.3961 17.495 25.2547 17.4641 25.1232 17.4054C24.9918 17.3467 24.8729 17.2614 24.7736 17.1545L23.8654 16.2105ZM22.342 14.6272L13.1999 5.12509L11.5225 6.86965L16.6053 12.2198C16.7156 12.3216 16.8046 12.4459 16.8668 12.585C16.929 12.7241 16.9631 12.8749 16.9669 13.0282C16.9707 13.1815 16.9441 13.334 16.8889 13.4762C16.8336 13.6184 16.7509 13.7473 16.6457 13.8549C16.5406 13.9625 16.4153 14.0465 16.2776 14.1017C16.14 14.1569 15.9929 14.1821 15.8455 14.1758C15.698 14.1695 15.5534 14.1317 15.4206 14.0649C15.2878 13.9981 15.1696 13.9037 15.0734 13.7874L10.0003 8.45185L3.85952 14.8344C3.55935 15.1463 3.32123 15.5167 3.15878 15.9243C2.99632 16.3319 2.91271 16.7687 2.91271 17.2099C2.91271 17.6511 2.99632 18.088 3.15878 18.4956C3.32123 18.9032 3.55935 19.2735 3.85952 19.5854L8.42952 24.3365C9.03634 24.9652 9.85822 25.3183 10.7151 25.3183C11.5719 25.3183 12.3938 24.9652 13.0006 24.3365L22.342 14.6272Z" fill="white"/>
</svg>
