<svg width="21" height="27" viewBox="0 0 21 27" fill="none" xmlns="http://www.w3.org/2000/svg">
<path opacity="0.963" fill-rule="evenodd" clip-rule="evenodd" d="M13.7227 0.0657078C14.631 -0.0276999 15.4929 0.129064 16.3083 0.536C17.4895 1.62921 18.6314 2.77135 19.7341 3.96241C20.069 4.60365 20.3275 5.27549 20.5098 5.97795C20.596 7.99349 20.596 10.009 20.5098 12.0246C20.4242 12.694 20.1657 13.2763 19.7341 13.7714C15.8342 17.8249 11.9344 21.8783 8.03443 25.9318C6.68308 26.855 5.3041 26.8998 3.89751 26.0661C3.01411 25.148 2.1307 24.2297 1.2473 23.3116C1.00067 22.9468 0.828299 22.5436 0.73019 22.1022C0.605087 19.0928 0.648175 16.0919 0.859468 13.0995C1.02377 12.7055 1.23924 12.3471 1.50586 12.0246C5.06102 8.32941 8.61618 4.63426 12.1713 0.939107C12.6428 0.53771 13.1599 0.246577 13.7227 0.0657078ZM7.77587 8.39659C7.88337 10.5682 7.94801 12.7629 7.96979 14.9807C9.22133 16.2591 10.4495 17.558 11.6542 18.8774C10.0873 20.7078 8.44977 22.477 6.74164 24.185C6.1176 24.4735 5.5143 24.4287 4.93174 24.0506C4.3069 23.4012 3.68205 22.7516 3.0572 22.1022C2.87118 21.8637 2.74191 21.595 2.66937 21.296C2.58318 19.0118 2.58318 16.7275 2.66937 14.4432C2.73672 13.9898 2.90909 13.5867 3.18648 13.2339C4.74239 11.6392 6.27219 10.0267 7.77587 8.39659Z" fill="white"/>
</svg>
