<svg width="27" height="24" viewBox="0 0 27 24" fill="none" xmlns="http://www.w3.org/2000/svg">
<path d="M1.73982 23.9363C2.02554 23.9363 2.29956 23.8183 2.5016 23.6083C2.70364 23.3983 2.81714 23.1135 2.81714 22.8165C2.81885 21.0352 3.50042 19.3274 4.71227 18.0678C5.92412 16.8083 7.56725 16.0999 9.28106 16.0981H15.5618V17.874C15.5619 18.3169 15.6883 18.7497 15.9251 19.1179C16.1619 19.4861 16.4983 19.7731 16.892 19.9426C17.2857 20.112 17.7188 20.1564 18.1367 20.07C18.5546 19.9836 18.9385 19.7704 19.2398 19.4573L25.5734 12.8743C26.1793 12.2444 26.5197 11.3901 26.5197 10.4994C26.5197 9.60862 26.1793 8.75434 25.5734 8.1244L19.2398 1.54143C18.9385 1.22833 18.5546 1.01512 18.1367 0.928748C17.7188 0.842377 17.2857 0.886725 16.892 1.05619C16.4983 1.22565 16.1619 1.51262 15.9251 1.88081C15.6883 2.249 15.5619 2.68189 15.5618 3.12475V4.90066H10.3584C7.78775 4.90362 5.32322 5.96633 3.5055 7.85562C1.68779 9.74491 0.665348 12.3065 0.662497 14.9783V22.8165C0.662497 23.1135 0.775999 23.3983 0.978037 23.6083C1.18007 23.8183 1.45409 23.9363 1.73982 23.9363ZM17.7165 3.12475L24.05 9.70771C24.252 9.9177 24.3655 10.2025 24.3655 10.4994C24.3655 10.7963 24.252 11.081 24.05 11.291L17.7165 17.874V14.9783C17.7165 14.6814 17.603 14.3966 17.4009 14.1866C17.1989 13.9766 16.9249 13.8586 16.6392 13.8586H9.28106C8.05767 13.8582 6.84827 14.1291 5.73361 14.6531C4.61894 15.1772 3.62466 15.9424 2.81714 16.8976V14.9783C2.81942 12.9002 3.61467 10.9079 5.02844 9.43852C6.4422 7.96908 8.35902 7.14251 10.3584 7.14014H16.6392C16.9249 7.14014 17.1989 7.02217 17.4009 6.81218C17.603 6.60219 17.7165 6.31738 17.7165 6.0204V3.12475Z" fill="white"/>
</svg>
