<svg width="14" height="14" viewBox="0 0 14 14" fill="none" xmlns="http://www.w3.org/2000/svg">
    <path fill-rule="evenodd" clip-rule="evenodd" d="M1.89575 3.5C1.89575 3.25838 2.09163 3.0625 2.33325 3.0625H11.6666C11.9082 3.0625 12.1041 3.25838 12.1041 3.5C12.1041 3.74162 11.9082 3.9375 11.6666 3.9375H2.33325C2.09163 3.9375 1.89575 3.74162 1.89575 3.5Z" fill="#BABABA"/>
    <path fill-rule="evenodd" clip-rule="evenodd" d="M1.89575 7C1.89575 6.75838 2.09163 6.5625 2.33325 6.5625H11.6666C11.9082 6.5625 12.1041 6.75838 12.1041 7C12.1041 7.24162 11.9082 7.4375 11.6666 7.4375H2.33325C2.09163 7.4375 1.89575 7.24162 1.89575 7Z" fill="#BABABA"/>
    <path fill-rule="evenodd" clip-rule="evenodd" d="M1.89575 10.5C1.89575 10.2584 2.09163 10.0625 2.33325 10.0625H9.33325C9.57488 10.0625 9.77075 10.2584 9.77075 10.5C9.77075 10.7416 9.57488 10.9375 9.33325 10.9375H2.33325C2.09163 10.9375 1.89575 10.7416 1.89575 10.5Z" fill="#BABABA"/>
</svg>
