<svg width="25" height="30" viewBox="0 0 25 30" fill="none" xmlns="http://www.w3.org/2000/svg">
<path d="M24.3184 5.27937H18.3142V2.87772C18.3142 2.24076 18.0612 1.6299 17.6108 1.1795C17.1604 0.729104 16.5495 0.476074 15.9126 0.476074L8.70765 0.476074C8.07069 0.476074 7.45982 0.729104 7.00943 1.1795C6.55903 1.6299 6.306 2.24076 6.306 2.87772V5.27937H0.30188V7.68101H2.70353V25.6934C2.70353 26.6488 3.08307 27.5651 3.75867 28.2407C4.43426 28.9163 5.35056 29.2958 6.306 29.2958H18.3142C19.2697 29.2958 20.186 28.9163 20.8616 28.2407C21.5372 27.5651 21.9167 26.6488 21.9167 25.6934V7.68101H24.3184V5.27937ZM8.70765 2.87772H15.9126V5.27937H8.70765V2.87772ZM19.5151 25.6934C19.5151 26.0118 19.3885 26.3173 19.1634 26.5425C18.9382 26.7677 18.6327 26.8942 18.3142 26.8942H6.306C5.98752 26.8942 5.68209 26.7677 5.45689 26.5425C5.23169 26.3173 5.10518 26.0118 5.10518 25.6934V7.68101H19.5151V25.6934Z" fill="white"/>
<path d="M11.1094 12.4844H8.70776V22.091H11.1094V12.4844Z" fill="white"/>
<path d="M15.9125 12.4844H13.5109V22.091H15.9125V12.4844Z" fill="white"/>
</svg>
