<svg width="27" height="24" viewBox="0 0 27 24" fill="none" xmlns="http://www.w3.org/2000/svg">
<path d="M25.5352 23.9363C25.2495 23.9363 24.9755 23.8183 24.7734 23.6083C24.5714 23.3983 24.4579 23.1135 24.4579 22.8165C24.4562 21.0352 23.7746 19.3274 22.5628 18.0678C21.3509 16.8083 19.7078 16.0999 17.994 16.0981H11.7132V17.874C11.7131 18.3169 11.5867 18.7497 11.3499 19.1179C11.1132 19.4861 10.7767 19.7731 10.383 19.9426C9.98937 20.112 9.55622 20.1564 9.13832 20.07C8.72042 19.9836 8.33654 19.7704 8.03521 19.4573L1.70165 12.8743C1.09575 12.2444 0.755371 11.3901 0.755371 10.4994C0.755371 9.60862 1.09575 8.75434 1.70165 8.1244L8.03521 1.54143C8.33654 1.22833 8.72042 1.01512 9.13832 0.928748C9.55622 0.842377 9.98937 0.886725 10.383 1.05619C10.7767 1.22565 11.1132 1.51262 11.3499 1.88081C11.5867 2.249 11.7131 2.68189 11.7132 3.12475V4.90066H16.9166C19.4873 4.90362 21.9518 5.96633 23.7695 7.85562C25.5872 9.74491 26.6097 12.3065 26.6125 14.9783V22.8165C26.6125 23.1135 26.499 23.3983 26.297 23.6083C26.095 23.8183 25.8209 23.9363 25.5352 23.9363ZM9.55854 3.12475L3.22498 9.70771C3.02301 9.9177 2.90955 10.2025 2.90955 10.4994C2.90955 10.7963 3.02301 11.081 3.22498 11.291L9.55854 17.874V14.9783C9.55854 14.6814 9.67205 14.3966 9.87408 14.1866C10.0761 13.9766 10.3501 13.8586 10.6359 13.8586H17.994C19.2174 13.8582 20.4268 14.1291 21.5414 14.6531C22.6561 15.1772 23.6504 15.9424 24.4579 16.8976V14.9783C24.4556 12.9002 23.6604 10.9079 22.2466 9.43852C20.8328 7.96908 18.916 7.14251 16.9166 7.14014H10.6359C10.3501 7.14014 10.0761 7.02217 9.87408 6.81218C9.67205 6.60219 9.55854 6.31738 9.55854 6.0204V3.12475Z" fill="white"/>
</svg>
