<svg width="218" height="218" viewBox="0 0 218 218" fill="none" xmlns="http://www.w3.org/2000/svg">
<path fill-rule="evenodd" clip-rule="evenodd" d="M67.4076 8.55872C80.5714 3.10609 94.6803 0.299652 108.929 0.299652C123.177 0.299652 137.286 3.10609 150.45 8.55872C163.614 14.0114 175.575 22.0034 185.65 32.0786C195.725 42.1537 203.717 54.1147 209.17 67.2785C214.622 80.4423 217.429 94.5512 217.429 108.8C217.429 123.048 214.622 137.157 209.17 150.321C203.717 163.485 195.725 175.446 185.65 185.521C175.575 195.596 163.614 203.588 150.45 209.041C137.286 214.493 123.177 217.3 108.929 217.3C94.6803 217.3 80.5714 214.493 67.4076 209.041C54.2437 203.588 42.2828 195.596 32.2076 185.521C22.1325 175.446 14.1404 163.485 8.68778 150.321C3.23515 137.157 0.428711 123.048 0.428711 108.8C0.428711 94.5512 3.23515 80.4423 8.68778 67.2785C14.1404 54.1147 22.1325 42.1537 32.2076 32.0786C42.2828 22.0034 54.2437 14.0114 67.4076 8.55872ZM108.929 21.9997C97.53 21.9997 86.2429 24.2448 75.7118 28.6069C65.1807 32.969 55.612 39.3627 47.5518 47.4228C39.4917 55.4829 33.0981 65.0517 28.736 75.5827C24.3739 86.1138 22.1287 97.4009 22.1287 108.8C22.1287 120.198 24.3739 131.486 28.736 142.017C33.0981 152.548 39.4917 162.116 47.5518 170.177C55.612 178.237 65.1807 184.63 75.7118 188.992C86.2428 193.355 97.53 195.6 108.929 195.6C120.327 195.6 131.615 193.355 142.146 188.992C152.677 184.63 162.245 178.237 170.306 170.177C178.366 162.116 184.759 152.548 189.121 142.017C193.484 131.486 195.729 120.198 195.729 108.8C195.729 97.4009 193.484 86.1138 189.121 75.5827C184.759 65.0517 178.366 55.4829 170.306 47.4228C162.245 39.3627 152.677 32.969 142.146 28.6069C131.615 24.2448 120.327 21.9997 108.929 21.9997Z" fill="#00E589"/>
<path fill-rule="evenodd" clip-rule="evenodd" d="M108.928 43.6996C114.92 43.6996 119.778 48.5574 119.778 54.5496V104.305L149.15 133.678C153.387 137.915 153.387 144.785 149.15 149.022C144.913 153.259 138.043 153.259 133.806 149.022L101.256 116.472C99.2212 114.437 98.0781 111.677 98.0781 108.8V54.5496C98.0781 48.5574 102.936 43.6996 108.928 43.6996Z" fill="#00E589"/>
</svg>
