<svg width="20" height="22" viewBox="0 0 20 22" fill="none" xmlns="http://www.w3.org/2000/svg">
<path fill-rule="evenodd" clip-rule="evenodd" d="M12.2859 1.81216C11.4969 1.81216 10.8573 2.48827 10.8573 3.32229C10.8573 4.15632 11.4969 4.83243 12.2859 4.83243C13.0749 4.83243 13.7145 4.15632 13.7145 3.32229C13.7145 2.48827 13.0749 1.81216 12.2859 1.81216ZM9.14307 3.32229C9.14307 1.48744 10.5502 0 12.2859 0C14.0216 0 15.4287 1.48744 15.4287 3.32229C15.4287 5.15715 14.0216 6.64459 12.2859 6.64459C10.5502 6.64459 9.14307 5.15715 9.14307 3.32229Z" fill="#00E589"/>
<path fill-rule="evenodd" clip-rule="evenodd" d="M0.000244141 3.32234C0.000244141 2.82193 0.383998 2.41626 0.857382 2.41626H10.0002C10.4736 2.41626 10.8573 2.82193 10.8573 3.32234C10.8573 3.82275 10.4736 4.22842 10.0002 4.22842H0.857382C0.383998 4.22842 0.000244141 3.82275 0.000244141 3.32234Z" fill="#00E589"/>
<path fill-rule="evenodd" clip-rule="evenodd" d="M13.7144 3.32234C13.7144 2.82193 14.0981 2.41626 14.5715 2.41626H19.1429C19.6163 2.41626 20 2.82193 20 3.32234C20 3.82275 19.6163 4.22842 19.1429 4.22842H14.5715C14.0981 4.22842 13.7144 3.82275 13.7144 3.32234Z" fill="#00E589"/>
<path fill-rule="evenodd" clip-rule="evenodd" d="M5.42873 9.06082C4.63976 9.06082 4.00017 9.73693 4.00017 10.571C4.00017 11.405 4.63976 12.0811 5.42873 12.0811C6.2177 12.0811 6.85729 11.405 6.85729 10.571C6.85729 9.73693 6.2177 9.06082 5.42873 9.06082ZM2.28589 10.571C2.28589 8.7361 3.69299 7.24866 5.42873 7.24866C7.16447 7.24866 8.57157 8.7361 8.57157 10.571C8.57157 12.4058 7.16447 13.8932 5.42873 13.8932C3.69299 13.8932 2.28589 12.4058 2.28589 10.571Z" fill="#00E589"/>
<path fill-rule="evenodd" clip-rule="evenodd" d="M0.000244141 10.571C0.000244141 10.0706 0.383998 9.66492 0.857382 9.66492H3.14308C3.61647 9.66492 4.00022 10.0706 4.00022 10.571C4.00022 11.0714 3.61647 11.4771 3.14308 11.4771H0.857382C0.383998 11.4771 0.000244141 11.0714 0.000244141 10.571Z" fill="#00E589"/>
<path fill-rule="evenodd" clip-rule="evenodd" d="M6.85742 10.571C6.85742 10.0706 7.24118 9.66492 7.71456 9.66492H19.1431C19.6165 9.66492 20.0002 10.0706 20.0002 10.571C20.0002 11.0714 19.6165 11.4771 19.1431 11.4771H7.71456C7.24118 11.4771 6.85742 11.0714 6.85742 10.571Z" fill="#00E589"/>
<path fill-rule="evenodd" clip-rule="evenodd" d="M15.7144 16.3095C14.9254 16.3095 14.2858 16.9856 14.2858 17.8196C14.2858 18.6536 14.9254 19.3297 15.7144 19.3297C16.5033 19.3297 17.1429 18.6536 17.1429 17.8196C17.1429 16.9856 16.5033 16.3095 15.7144 16.3095ZM12.5715 17.8196C12.5715 15.9848 13.9786 14.4973 15.7144 14.4973C17.4501 14.4973 18.8572 15.9848 18.8572 17.8196C18.8572 19.6545 17.4501 21.1419 15.7144 21.1419C13.9786 21.1419 12.5715 19.6545 12.5715 17.8196Z" fill="#00E589"/>
<path fill-rule="evenodd" clip-rule="evenodd" d="M0.000244141 17.8195C0.000244141 17.3191 0.383998 16.9135 0.857382 16.9135H13.4287C13.9021 16.9135 14.2859 17.3191 14.2859 17.8195C14.2859 18.3199 13.9021 18.7256 13.4287 18.7256H0.857382C0.383998 18.7256 0.000244141 18.3199 0.000244141 17.8195Z" fill="#00E589"/>
<path fill-rule="evenodd" clip-rule="evenodd" d="M17.1431 17.8195C17.1431 17.3191 17.5268 16.9135 18.0002 16.9135H19.1431C19.6164 16.9135 20.0002 17.3191 20.0002 17.8195C20.0002 18.3199 19.6164 18.7256 19.1431 18.7256H18.0002C17.5268 18.7256 17.1431 18.3199 17.1431 17.8195Z" fill="#00E589"/>
</svg>
