<svg width="14" height="22" viewBox="0 0 14 22" fill="none" xmlns="http://www.w3.org/2000/svg">
<path fill-rule="evenodd" clip-rule="evenodd" d="M0.518555 5.2072C0.518555 4.75312 0.866778 4.38501 1.29633 4.38501H12.7037C13.1333 4.38501 13.4815 4.75312 13.4815 5.2072C13.4815 5.66128 13.1333 6.02939 12.7037 6.02939H1.29633C0.866778 6.02939 0.518555 5.66128 0.518555 5.2072Z" fill="#00E589"/>
<path fill-rule="evenodd" clip-rule="evenodd" d="M0.518555 16.1697C0.518555 15.7156 0.866778 15.3475 1.29633 15.3475H12.7037C13.1333 15.3475 13.4815 15.7156 13.4815 16.1697C13.4815 16.6238 13.1333 16.9919 12.7037 16.9919H1.29633C0.866778 16.9919 0.518555 16.6238 0.518555 16.1697Z" fill="#00E589"/>
<path fill-rule="evenodd" clip-rule="evenodd" d="M7 11.5106C5.55604 11.5106 4.17123 12.117 3.1502 13.1963C2.12917 14.2757 1.55556 15.7396 1.55556 17.266V19.4585C1.55556 19.5311 1.58287 19.6009 1.63149 19.6523C1.68011 19.7037 1.74605 19.7325 1.81481 19.7325H12.1852C12.2539 19.7325 12.3199 19.7037 12.3685 19.6523C12.4171 19.6009 12.4444 19.5312 12.4444 19.4585V17.266C12.4444 15.7396 11.8708 14.2757 10.8498 13.1963C9.82877 12.117 8.44396 11.5106 7 11.5106ZM2.05025 12.0336C3.36301 10.6459 5.14348 9.86627 7 9.86627C8.85652 9.86627 10.637 10.6459 11.9497 12.0336C13.2625 13.4213 14 15.3034 14 17.266V19.4585C14 19.9673 13.8088 20.4552 13.4685 20.815C13.1281 21.1748 12.6665 21.3769 12.1852 21.3769H1.81481C1.3335 21.3769 0.871892 21.1748 0.531547 20.815C0.191203 20.4552 0 19.9673 0 19.4585V17.266C0 15.3034 0.737498 13.4213 2.05025 12.0336Z" fill="#00E589"/>
<path fill-rule="evenodd" clip-rule="evenodd" d="M0.531547 0.561898C0.871891 0.202121 1.3335 0 1.81481 0H12.1852C12.6665 0 13.1281 0.20212 13.4685 0.561898C13.8088 0.921676 14 1.40964 14 1.91844V4.11094C14 6.07346 13.2625 7.9556 11.9497 9.34331C10.637 10.731 8.85652 11.5106 7 11.5106C5.14348 11.5106 3.36301 10.731 2.05025 9.34331C0.737498 7.9556 0 6.07346 0 4.11094V1.91844C0 1.40964 0.191204 0.921674 0.531547 0.561898ZM1.81481 1.64438C1.74606 1.64438 1.68011 1.67325 1.63149 1.72465C1.58287 1.77604 1.55556 1.84575 1.55556 1.91844V4.11094C1.55556 5.63734 2.12917 7.10123 3.1502 8.18056C4.17123 9.25989 5.55604 9.86625 7 9.86625C8.44396 9.86625 9.82877 9.25989 10.8498 8.18056C11.8708 7.10123 12.4444 5.63734 12.4444 4.11094V1.91844C12.4444 1.84575 12.4171 1.77604 12.3685 1.72465C12.3199 1.67325 12.2539 1.64438 12.1852 1.64438H1.81481Z" fill="#00E589"/>
</svg>
