<svg width="22" height="22" viewBox="0 0 22 22" fill="none" xmlns="http://www.w3.org/2000/svg">
<path fill-rule="evenodd" clip-rule="evenodd" d="M10.625 1.63462C5.65975 1.63462 1.63462 5.65975 1.63462 10.625C1.63462 15.5903 5.65975 19.6154 10.625 19.6154C15.5903 19.6154 19.6154 15.5903 19.6154 10.625C19.6154 5.65975 15.5903 1.63462 10.625 1.63462ZM0 10.625C0 4.75697 4.75697 0 10.625 0C16.493 0 21.25 4.75697 21.25 10.625C21.25 16.493 16.493 21.25 10.625 21.25C4.75697 21.25 0 16.493 0 10.625Z" fill="#00E589"/>
<path fill-rule="evenodd" clip-rule="evenodd" d="M10.6251 5.99362C9.27095 5.99362 8.17319 7.09139 8.17319 8.44555C8.17319 9.79971 9.27095 10.8975 10.6251 10.8975C11.9793 10.8975 13.077 9.79971 13.077 8.44555C13.077 7.09139 11.9793 5.99362 10.6251 5.99362ZM6.53857 8.44555C6.53857 6.18861 8.36818 4.35901 10.6251 4.35901C12.882 4.35901 14.7117 6.18861 14.7117 8.44555C14.7117 10.7025 12.882 12.5321 10.6251 12.5321C8.36818 12.5321 6.53857 10.7025 6.53857 8.44555Z" fill="#00E589"/>
<path fill-rule="evenodd" clip-rule="evenodd" d="M14.9213 16.5024C14.3097 16.047 13.5674 15.8011 12.8048 15.8014L8.44557 15.8014C7.68398 15.8011 6.94235 16.0464 6.33117 16.5008C5.71999 16.9552 5.27156 17.5945 5.05241 18.3239C4.92253 18.7562 4.46679 19.0014 4.03449 18.8715C3.6022 18.7416 3.35704 18.2859 3.48693 17.8536C3.80723 16.7875 4.46262 15.8532 5.35589 15.189C6.24909 14.525 7.33255 14.1665 8.44557 14.1667C8.44549 14.1667 8.44565 14.1667 8.44557 14.1667L12.8043 14.1667C12.8042 14.1667 12.8043 14.1667 12.8043 14.1667C12.8043 14.1667 12.8045 14.1667 12.8045 14.1667C13.919 14.1664 15.0038 14.5258 15.8976 15.1914C16.7915 15.857 17.4467 16.7934 17.7657 17.8613C17.8949 18.2938 17.6491 18.7492 17.2166 18.8784C16.7841 19.0076 16.3287 18.7617 16.1995 18.3292C15.9812 17.5986 15.5329 16.9579 14.9213 16.5024Z" fill="#00E589"/>
</svg>
