<svg width="500" height="500" viewBox="0 0 500 500" fill="none" xmlns="http://www.w3.org/2000/svg">
<rect width="500" height="500" rx="10" fill="#E0E5EB"/>
<g clip-path="url(#clip0_1105_19)">
<path d="M255.814 255.814C268.463 255.814 280.827 252.063 291.344 245.036C301.862 238.009 310.059 228.02 314.899 216.334C319.74 204.648 321.006 191.79 318.538 179.384C316.071 166.978 309.98 155.583 301.036 146.639C292.092 137.694 280.696 131.603 268.291 129.136C255.885 126.668 243.026 127.935 231.34 132.775C219.654 137.616 209.666 145.813 202.638 156.33C195.611 166.847 191.86 179.212 191.86 191.86C191.877 208.817 198.621 225.074 210.611 237.064C222.601 249.054 238.858 255.797 255.814 255.814ZM255.814 149.225C264.246 149.225 272.49 151.725 279.501 156.41C286.512 161.095 291.977 167.754 295.204 175.544C298.431 183.335 299.275 191.908 297.63 200.178C295.985 208.449 291.924 216.046 285.962 222.008C279.999 227.971 272.402 232.032 264.132 233.677C255.861 235.322 247.289 234.478 239.498 231.251C231.707 228.024 225.048 222.559 220.364 215.548C215.679 208.536 213.178 200.293 213.178 191.86C213.178 180.553 217.67 169.708 225.666 161.712C233.662 153.717 244.506 149.225 255.814 149.225Z" fill="#8598AE"/>
<path d="M255.813 277.132C230.38 277.16 205.996 287.276 188.012 305.26C170.027 323.245 159.912 347.628 159.883 373.062C159.883 375.889 161.006 378.6 163.005 380.599C165.004 382.598 167.715 383.721 170.542 383.721C173.369 383.721 176.08 382.598 178.079 380.599C180.078 378.6 181.201 375.889 181.201 373.062C181.201 353.274 189.062 334.296 203.055 320.303C217.047 306.311 236.025 298.45 255.813 298.45C275.602 298.45 294.58 306.311 308.572 320.303C322.565 334.296 330.426 353.274 330.426 373.062C330.426 375.889 331.549 378.6 333.548 380.599C335.547 382.598 338.258 383.721 341.085 383.721C343.912 383.721 346.623 382.598 348.622 380.599C350.621 378.6 351.744 375.889 351.744 373.062C351.715 347.628 341.6 323.245 323.615 305.26C305.631 287.276 281.247 277.16 255.813 277.132Z" fill="#8598AE"/>
</g>
<defs>
<clipPath id="clip0_1105_19">
<rect width="255.814" height="255.814" fill="white" transform="translate(127.907 127.907)"/>
</clipPath>
</defs>
</svg>
